<svg width="91" height="54" viewBox="0 0 91 54" fill="none" xmlns="http://www.w3.org/2000/svg">
<path d="M13.372 4.36572H17.9273V26.2606H14.4006L4.55531 13.0061V26.2606H0V4.36572H3.4973L13.372 17.532V4.36572Z" fill="black"/>
<path d="M54.3654 9.86148C58.9207 9.86148 62.5062 13.5351 62.5062 18.2374C62.5062 22.9102 59.0089 26.6133 54.3361 26.6133C52.367 26.6133 50.6036 25.9667 49.4575 24.7324V26.2606H45.343V4.36572H49.7514V11.566C50.8387 10.4787 52.4552 9.86148 54.3654 9.86148ZM53.807 22.6457C56.2169 22.6457 57.9509 20.8236 57.9509 18.2374C57.9509 15.6805 56.2169 13.829 53.807 13.829C51.4265 13.829 49.7514 15.6511 49.7514 18.2374C49.7514 20.853 51.4265 22.6457 53.807 22.6457Z" fill="black"/>
<path d="M66.5154 26.2606V4.36572H70.9237V26.2606H66.5154Z" fill="black"/>
<path d="M91 17.7671C91 18.4137 90.9412 19.0309 90.7943 19.4717H79.5089C79.7734 21.4996 81.2134 22.7927 83.3882 22.7927C84.9459 22.7927 86.092 22.1167 86.7092 21.0293L90.2359 22.7045C89.266 25.0556 86.621 26.6133 83.3295 26.6133C78.2451 26.6133 74.9242 22.8515 74.9242 18.208C74.9242 13.4176 78.4509 9.86148 83.0356 9.86148C87.5321 9.86148 91 13.3294 91 17.7671ZM79.597 16.2389H86.3271C86.1508 14.5343 84.8577 13.3882 83.0356 13.3882C81.3016 13.3882 80.0379 14.3874 79.597 16.2389Z" fill="black"/>
<path d="M28.4522 13.4002C28.3222 13.6019 28.1084 13.7382 27.8686 13.7477C27.2424 13.7726 26.6285 13.6834 26.0268 13.4801C25.3046 13.2361 24.6627 12.8635 24.1012 12.3623C23.557 11.8546 23.1558 11.2542 22.8977 10.5611C22.4912 9.46944 22.4037 8.46616 22.6352 7.55127C22.8841 6.62992 23.3393 5.83889 24.0009 5.17819C24.6798 4.51104 25.4697 4.0097 26.3708 3.67416C26.7693 3.52576 27.2068 3.40233 27.6831 3.30387C27.8168 3.27625 27.9501 3.25186 28.083 3.23071C28.6563 3.13951 29.16 3.56837 29.2405 4.14324C29.3291 4.77562 28.8766 5.35294 28.2533 5.49182C28.2466 5.49331 28.2399 5.49481 28.2332 5.49632C27.8326 5.5863 27.4764 5.68936 27.1645 5.8055C26.5407 6.03779 26.0281 6.3569 25.6268 6.76284C25.2255 7.16877 24.9604 7.62263 24.8316 8.12441C24.6963 8.60887 24.7254 9.11101 24.919 9.63085C25.0932 10.0987 25.3813 10.4748 25.7832 10.7593C26.1959 11.0199 26.6618 11.2114 27.1809 11.3338C27.6936 11.4389 28.1923 11.4801 28.6772 11.4574C29.0469 11.4264 29.4097 11.9152 29.2086 12.2271L28.4522 13.4002Z" fill="url(#paint0_linear_88648_1091)"/>
<mask id="path-3-inside-1_88648_1091" fill="white">
<path d="M40.4664 20.5953C41.189 20.8025 41.6164 21.563 41.2973 22.2436C40.6583 23.6062 39.6669 24.7837 38.4153 25.648C36.788 26.7716 34.8216 27.2962 32.8509 27.1325C30.8802 26.9687 29.0273 26.1267 27.6079 24.75C26.1884 23.3732 25.2902 21.5469 25.0664 19.5821C24.8425 17.6174 25.3068 15.6358 26.3802 13.975C27.4536 12.3143 29.0696 11.0771 30.9529 10.4742C32.8363 9.87135 34.8703 9.94016 36.7086 10.6689C38.1226 11.2295 39.3534 12.1538 40.2826 13.3377C40.7467 13.9291 40.5013 14.7662 39.8438 15.1307C39.1863 15.4951 38.3677 15.2428 37.8609 14.6876C37.2686 14.0387 36.533 13.5277 35.7054 13.1996C34.4526 12.7029 33.0663 12.656 31.7829 13.0669C30.4994 13.4777 29.3981 14.3209 28.6665 15.4527C27.935 16.5845 27.6186 17.935 27.7712 19.274C27.9237 20.6129 28.5358 21.8576 29.5032 22.7959C30.4706 23.7341 31.7333 24.3079 33.0763 24.4195C34.4193 24.5311 35.7595 24.1736 36.8685 23.4079C37.6011 22.902 38.2029 22.2386 38.634 21.4731C39.003 20.8181 39.7438 20.3881 40.4664 20.5953Z"/>
</mask>
<path d="M40.4664 20.5953C41.189 20.8025 41.6164 21.563 41.2973 22.2436C40.6583 23.6062 39.6669 24.7837 38.4153 25.648C36.788 26.7716 34.8216 27.2962 32.8509 27.1325C30.8802 26.9687 29.0273 26.1267 27.6079 24.75C26.1884 23.3732 25.2902 21.5469 25.0664 19.5821C24.8425 17.6174 25.3068 15.6358 26.3802 13.975C27.4536 12.3143 29.0696 11.0771 30.9529 10.4742C32.8363 9.87135 34.8703 9.94016 36.7086 10.6689C38.1226 11.2295 39.3534 12.1538 40.2826 13.3377C40.7467 13.9291 40.5013 14.7662 39.8438 15.1307C39.1863 15.4951 38.3677 15.2428 37.8609 14.6876C37.2686 14.0387 36.533 13.5277 35.7054 13.1996C34.4526 12.7029 33.0663 12.656 31.7829 13.0669C30.4994 13.4777 29.3981 14.3209 28.6665 15.4527C27.935 16.5845 27.6186 17.935 27.7712 19.274C27.9237 20.6129 28.5358 21.8576 29.5032 22.7959C30.4706 23.7341 31.7333 24.3079 33.0763 24.4195C34.4193 24.5311 35.7595 24.1736 36.8685 23.4079C37.6011 22.902 38.2029 22.2386 38.634 21.4731C39.003 20.8181 39.7438 20.3881 40.4664 20.5953Z" stroke="url(#paint1_linear_88648_1091)" stroke-width="3.02557" mask="url(#path-3-inside-1_88648_1091)"/>
<circle cx="40.6127" cy="17.8251" r="0.907672" transform="rotate(16 40.6127 17.8251)" stroke="url(#paint2_linear_88648_1091)" stroke-width="0.605115"/>
<circle cx="32.4595" cy="3.99889" r="0.907672" transform="rotate(16 32.4595 3.99889)" stroke="url(#paint3_linear_88648_1091)" stroke-width="0.605115"/>
<circle cx="39.3334" cy="33.6561" r="1.60314" stroke="url(#paint4_linear_88648_1091)" stroke-width="1.06876"/>
<path d="M27.5345 31.5186H31.9429V53.4134H27.3876V39.3067L20.775 47.8295H20.1873L13.5747 38.9834V53.4134H9.01941V31.5186H13.4278L20.4518 40.7761L27.5345 31.5186Z" fill="black"/>
<path d="M37.1304 53.4134V37.367H41.5387V53.4134H37.1304Z" fill="black"/>
<path d="M55.0318 37.0143C58.6467 37.0143 61.1154 39.4536 61.1154 43.0979V53.4134H56.707V44.0383C56.707 42.1868 55.5021 40.9818 53.7681 40.9818C52.0342 40.9818 50.8292 42.1868 50.8292 44.0383V53.4134H46.4208V37.367H50.5353V39.3067C51.3582 37.749 53.004 37.0143 55.0318 37.0143Z" fill="black"/>
<path d="M77.5722 31.5186H81.9806V53.4134H77.8661V51.8852C76.7199 53.1195 74.9566 53.7661 72.9875 53.7661C68.3146 53.7661 64.8173 50.0631 64.8173 45.3902C64.8173 40.688 68.4028 37.0143 72.9581 37.0143C74.8684 37.0143 76.4848 37.6315 77.5722 38.7189V31.5186ZM73.5165 49.7986C75.897 49.7986 77.5722 48.0058 77.5722 45.3902C77.5722 42.804 75.897 40.9818 73.5165 40.9818C71.1066 40.9818 69.3726 42.8334 69.3726 45.3902C69.3726 47.9764 71.1066 49.7986 73.5165 49.7986Z" fill="black"/>
<defs>
<linearGradient id="paint0_linear_88648_1091" x1="21.7732" y1="0.787037" x2="55.2138" y2="12.874" gradientUnits="userSpaceOnUse">
<stop stop-color="#A854E9"/>
<stop offset="1" stop-color="#4F91FC"/>
</linearGradient>
<linearGradient id="paint1_linear_88648_1091" x1="31.1224" y1="3.17705" x2="69.6372" y2="62.203" gradientUnits="userSpaceOnUse">
<stop stop-color="#A854E9"/>
<stop offset="1" stop-color="#4F91FC"/>
</linearGradient>
<linearGradient id="paint2_linear_88648_1091" x1="39.6786" y1="15.819" x2="47.2244" y2="22.3497" gradientUnits="userSpaceOnUse">
<stop stop-color="#A854E9"/>
<stop offset="1" stop-color="#4F91FC"/>
</linearGradient>
<linearGradient id="paint3_linear_88648_1091" x1="31.5254" y1="1.9928" x2="39.0712" y2="8.52354" gradientUnits="userSpaceOnUse">
<stop stop-color="#A854E9"/>
<stop offset="1" stop-color="#4F91FC"/>
</linearGradient>
<linearGradient id="paint4_linear_88648_1091" x1="37.6836" y1="30.1129" x2="51.0112" y2="41.6476" gradientUnits="userSpaceOnUse">
<stop stop-color="#A854E9"/>
<stop offset="1" stop-color="#4F91FC"/>
</linearGradient>
</defs>
</svg>
